<?xml version="1.0" standalone="no"?>
<!DOCTYPE svg PUBLIC "-//W3C//DTD SVG 20010904//EN"
 "http://www.w3.org/TR/2001/REC-SVG-20010904/DTD/svg10.dtd">
<svg version="1.0" xmlns="http://www.w3.org/2000/svg"
 width="512.000000pt" height="512.000000pt" viewBox="0 0 512.000000 512.000000"
 preserveAspectRatio="xMidYMid meet">

<g transform="translate(0.000000,512.000000) scale(0.100000,-0.100000)"
fill="#000000" stroke="none">
<path d="M1570 4785 c-166 -34 -328 -127 -434 -247 -31 -35 -205 -325 -488
-814 -241 -417 -455 -790 -474 -828 -99 -193 -103 -471 -8 -658 23 -45 419
-734 811 -1411 66 -113 136 -221 165 -253 93 -102 245 -192 388 -231 60 -17
136 -18 1030 -18 894 0 970 1 1030 18 145 39 298 131 390 235 37 40 180 279
491 817 242 418 456 791 475 829 53 103 75 200 75 336 0 136 -22 233 -75 336
-19 38 -233 411 -475 829 -311 538 -454 777 -491 817 -63 71 -153 136 -251
182 -158 75 -86 70 -1144 73 -762 1 -963 -1 -1015 -12z m2031 -352 c49 -24
102 -60 126 -85 28 -29 185 -290 482 -804 241 -419 448 -779 460 -802 33 -64
46 -169 32 -253 -6 -39 -21 -88 -32 -110 -11 -22 -218 -383 -459 -802 -488
-845 -476 -827 -620 -896 l-75 -36 -956 0 -956 0 -84 42 c-49 24 -102 60 -126
85 -48 49 -946 1595 -965 1663 -15 52 -15 198 0 250 12 42 30 74 576 1020 227
391 361 615 388 642 43 44 134 97 202 119 32 10 241 12 982 11 l941 -2 84 -42z"/>
<path d="M2455 3499 c-307 -33 -596 -233 -735 -508 -184 -367 -120 -796 164
-1089 232 -241 598 -342 921 -255 74 19 228 90 290 133 280 192 439 537 404
876 -53 521 -521 899 -1044 843z m275 -335 c204 -60 374 -231 436 -439 25 -82
25 -248 0 -330 -63 -210 -231 -378 -441 -441 -82 -25 -248 -25 -330 0 -210 63
-378 231 -441 441 -25 82 -25 248 0 330 71 238 279 421 521 459 53 8 199 -3
255 -20z"/>
</g>
</svg>
